HIERARCHY
ROOT SpineBase
{
  OFFSET 0.000000 0.000000 0.000000
  CHANNELS 6 Xposition Yposition Zposition Zrotation Xrotation Yrotation
  JOINT SpineMid
  {
    OFFSET 0.000000 29.756178 0.000000
    CHANNELS 3 Zrotation Xrotation Yrotation
    JOINT SpineShoulder
    {
      OFFSET 0.207750 22.211427 -0.865739
      CHANNELS 3 Zrotation Xrotation Yrotation
      JOINT Neck
      {
        OFFSET 0.121656 7.382910 -0.631251
        CHANNELS 3 Zrotation Xrotation Yrotation
        JOINT Head
        {
          OFFSET -0.073925 15.031453 -2.003159
          CHANNELS 3 Zrotation Xrotation Yrotation
          End Site
          {
            OFFSET 0 0 0
          }
        }
      }
      JOINT ShoulderLeft
      {
        OFFSET -17.232818 -1.577831 -2.322274
        CHANNELS 3 Zrotation Xrotation Yrotation
        JOINT ElbowLeft
        {
          OFFSET -4.793437 -25.801436 -0.848474
          CHANNELS 3 Zrotation Xrotation Yrotation
          JOINT WristLeft
          {
            OFFSET -0.783445 -21.068612 -4.685093
            CHANNELS 3 Zrotation Xrotation Yrotation
            JOINT HandLeft
            {
              OFFSET 1.129984 -4.851942 0.571544
              CHANNELS 3 Zrotation Xrotation Yrotation
              JOINT HandTipLeft
              {
                OFFSET 0.036310 -7.114265 -1.391733
                CHANNELS 3 Zrotation Xrotation Yrotation
                End Site
                {
                  OFFSET 0 0 0
                }
              }
              JOINT ThumbLeft
              {
                OFFSET 3.388996 0.117142 -1.328686
                CHANNELS 3 Zrotation Xrotation Yrotation
                End Site
                {
                  OFFSET 0 0 0
                }
              }
            }
          }
        }
      }
      JOINT ShoulderRight
      {
        OFFSET 17.264819 -2.787392 0.615422
        CHANNELS 3 Zrotation Xrotation Yrotation
        JOINT ElbowRight
        {
          OFFSET 4.075418 -27.569423 1.897573
          CHANNELS 3 Zrotation Xrotation Yrotation
          JOINT WristRight
          {
            OFFSET -0.312573 -21.393275 -4.807681
            CHANNELS 3 Zrotation Xrotation Yrotation
            JOINT HandRight
            {
              OFFSET -2.878940 -4.696326 -1.032315
              CHANNELS 3 Zrotation Xrotation Yrotation
              JOINT HandTipRight
              {
                OFFSET 0.602212 -5.409295 0.057118
                CHANNELS 3 Zrotation Xrotation Yrotation
                End Site
                {
                  OFFSET 0 0 0
                }
              }
              JOINT ThumbRight
              {
                OFFSET 3.170913 -1.137332 -0.926768
                CHANNELS 3 Zrotation Xrotation Yrotation
                End Site
                {
                  OFFSET 0 0 0
                }
              }
            }
          }
        }
      }
    }
  }
  JOINT HipLeft
  {
    OFFSET -7.309294 0.947866 -3.845779
    CHANNELS 3 Zrotation Xrotation Yrotation
    JOINT KneeLeft
    {
      OFFSET -5.074820 -27.004061 -2.767887
      CHANNELS 3 Zrotation Xrotation Yrotation
      JOINT AnkleLeft
      {
        OFFSET -1.454859 -36.192677 6.649436
        CHANNELS 3 Zrotation Xrotation Yrotation
        JOINT FootLeft
        {
          OFFSET 1.034751 -2.154935 -11.113356
          CHANNELS 3 Zrotation Xrotation Yrotation
          End Site
          {
            OFFSET 0 0 0
          }
        }
      }
    }
  }
  JOINT HipRight
  {
    OFFSET 7.870341 0.921571 -2.845724
    CHANNELS 3 Zrotation Xrotation Yrotation
    JOINT KneeRight
    {
      OFFSET 1.575100 -27.423627 0.873611
      CHANNELS 3 Zrotation Xrotation Yrotation
      JOINT AnkleRight
      {
        OFFSET -4.372787 -37.569174 10.872047
        CHANNELS 3 Zrotation Xrotation Yrotation
        JOINT FootRight
        {
          OFFSET 0.864238 -2.164623 -11.134531
          CHANNELS 3 Zrotation Xrotation Yrotation
          End Site
          {
            OFFSET 0 0 0
          }
        }
      }
    }
  }
}
MOTION
Frames: 6
Frame Time: 0.033333
-32.474727 67.843958 350.080042 -2.651275 -10.313683 -10.297195 0.324499 -0.083516 10.034930 0.232438 -0.156259 -0.034756 -3.876880 2.852758 -0.316928 0.000000 0.000000 0.000000 -11.893055 20.277467 2.165268 83.194012 -10.191481 -1.165896 26.558289 8.204055 20.948095 -13.924601 -4.653532 -22.349818 0.000000 0.000000 0.000000 0.000000 0.000000 0.000000 16.750036 10.564169 -1.869969 -85.609546 23.481260 31.455985 4.810346 -0.974838 -17.843287 -30.124516 4.732975 3.574620 0.000000 0.000000 0.000000 0.000000 0.000000 0.000000 -13.168300 31.928014 11.638194 5.823818 -23.628112 3.159146 1.927520 -23.267394 -1.802966 0.000000 0.000000 0.000000 9.169733 19.210078 8.530812 -9.472148 -7.071492 -1.299288 0.911552 -4.343737 -7.894350 0.000000 0.000000 0.000000
-34.213148 65.900190 349.898628 -3.221938 -12.732123 -15.009318 0.373463 0.140115 14.616998 0.247728 0.061450 -0.044172 -5.173715 4.499360 -0.178761 0.000000 0.000000 0.000000 -9.400270 21.754487 1.927839 83.008650 -12.212853 -0.361052 12.715502 10.997983 18.176659 -3.028631 -14.341840 -16.614684 0.000000 0.000000 0.000000 0.000000 0.000000 0.000000 18.955721 6.481506 -2.734572 -89.684149 22.535643 37.009141 17.571976 0.645099 -16.635283 -40.141748 6.909920 8.171077 0.000000 0.000000 0.000000 0.000000 0.000000 0.000000 -21.918918 36.140229 19.986780 7.167152 -25.836582 3.091262 4.470229 -24.265472 -7.245410 0.000000 0.000000 0.000000 10.922835 25.599380 11.940673 -12.870532 -11.272168 -1.681740 0.618191 -3.810403 -10.640782 0.000000 0.000000 0.000000
-36.439335 64.006390 349.063338 -3.528619 -15.006126 -20.118057 0.223365 0.417073 19.632663 0.207897 0.340367 -0.045057 -7.239800 6.909878 0.151810 0.000000 0.000000 0.000000 -6.427063 22.017722 1.426789 80.634021 -13.475638 -0.962910 0.161459 9.627064 18.290005 9.229143 -11.476221 -18.802228 0.000000 0.000000 0.000000 0.000000 0.000000 0.000000 20.785044 -0.409989 -3.395712 -93.180144 22.774405 45.121688 27.582447 2.793054 -16.535629 -45.493545 8.206408 11.964110 0.000000 0.000000 0.000000 0.000000 0.000000 0.000000 -31.419334 37.218874 29.177954 7.930530 -26.179100 2.569309 8.085884 -21.679965 -9.423430 0.000000 0.000000 0.000000 12.057622 31.431923 15.520007 -16.306314 -14.225199 -1.947992 -0.090566 -3.605191 -13.189226 0.000000 0.000000 0.000000
-38.867538 62.303092 347.525976 -3.699951 -16.478994 -24.462752 0.175193 0.577258 23.908537 0.215436 0.377081 -0.042723 -9.274273 8.400057 0.507679 0.000000 0.000000 0.000000 -2.059353 21.677355 0.258448 73.860282 -13.351134 -2.624764 -10.530407 11.507163 17.205322 20.265297 -9.826318 -19.173097 0.000000 0.000000 0.000000 0.000000 0.000000 0.000000 21.831054 -6.930710 -3.784231 -96.790063 23.015309 53.053426 36.033597 6.433311 -17.625577 -49.439247 7.176496 12.867424 0.000000 0.000000 0.000000 0.000000 0.000000 0.000000 -38.283981 35.595578 36.043959 8.087183 -25.225103 1.751459 11.648233 -17.934888 -10.258943 0.000000 0.000000 0.000000 13.890185 35.930834 18.005142 -19.997301 -16.503311 -2.021849 -1.038739 -2.877732 -15.432148 0.000000 0.000000 0.000000
-41.785473 61.082826 345.262881 -3.264961 -17.492742 -27.644273 0.110935 0.333008 27.157864 0.116221 0.323165 -0.017680 -10.880732 10.219884 0.950447 0.000000 0.000000 0.000000 0.165550 23.133014 -0.599618 71.904592 -14.966685 -1.270844 -16.332768 10.071630 17.352272 30.652909 -0.884705 -26.922439 0.000000 0.000000 0.000000 0.000000 0.000000 0.000000 22.142489 -12.924812 -4.098790 -99.324122 22.810972 59.879748 42.092342 9.088873 -18.833955 -52.293560 3.462155 9.724564 0.000000 0.000000 0.000000 0.000000 0.000000 0.000000 -41.644628 32.993821 39.801567 7.741626 -23.728286 1.049417 12.821988 -20.333969 -10.844154 0.000000 0.000000 0.000000 14.506467 38.289954 20.010824 -20.543211 -18.092821 -0.732770 -3.472782 -0.591478 -16.795077 0.000000 0.000000 0.000000
-45.241837 60.783308 343.341779 -3.128530 -18.883392 -29.210534 0.170985 0.506586 28.705169 0.109784 0.391381 0.003516 -11.242897 11.252204 1.198616 0.000000 0.000000 0.000000 0.314936 25.448937 -0.927925 74.460338 -17.940330 2.101360 -19.031659 11.147867 17.248732 33.048672 -8.046533 -21.881936 0.000000 0.000000 0.000000 0.000000 0.000000 0.000000 22.384660 -17.399418 -4.377703 -101.093718 22.610220 64.855294 45.564700 9.331160 -19.218972 -54.612518 2.014385 8.094028 0.000000 0.000000 0.000000 0.000000 0.000000 0.000000 -41.686019 33.539595 41.370944 5.836473 -23.415333 0.641578 12.230497 -23.412402 -11.361741 0.000000 0.000000 0.000000 16.310104 38.548904 20.033464 -19.653803 -16.150542 1.009816 -6.573133 -1.571615 -18.677314 0.000000 0.000000 0.000000
